<svg id="github" data-name="github" xmlns="http://www.w3.org/2000/svg" viewBox="0 0 24 23.4"><defs><style>.cls-1{fill:#ff514e;}</style></defs><path class="cls-1" d="M98.74,132.75c0,.09-.11.17-.25.17s-.27-.06-.27-.17.11-.18.25-.18S98.74,132.63,98.74,132.75Zm-1.51-.22c0,.09.07.21.21.23a.23.23,0,0,0,.3-.09c0-.1-.06-.21-.21-.25A.24.24,0,0,0,97.23,132.53Zm2.14-.08c-.14,0-.23.12-.22.23s.14.16.29.13.23-.13.22-.22S99.51,132.43,99.37,132.45Zm3.19-18.55a11.61,11.61,0,0,0-11.85,11.81,12.12,12.12,0,0,0,8.2,11.57c.62.12.84-.27.84-.58s0-2,0-3c0,0-3.39.72-4.1-1.44,0,0-.55-1.41-1.35-1.78,0,0-1.11-.75.08-.74A2.58,2.58,0,0,1,96.24,131a2.55,2.55,0,0,0,3.52,1,2.74,2.74,0,0,1,.78-1.63c-2.71-.3-5.43-.69-5.43-5.35a3.64,3.64,0,0,1,1.14-2.85,4.53,4.53,0,0,1,.12-3.28c1-.32,3.34,1.3,3.34,1.3a11.48,11.48,0,0,1,6.08,0s2.33-1.62,3.34-1.3a4.53,4.53,0,0,1,.12,3.28,3.76,3.76,0,0,1,1.25,2.85c0,4.67-2.85,5-5.55,5.35a2.87,2.87,0,0,1,.82,2.24c0,1.63,0,3.65,0,4.05s.22.7.83.58a12,12,0,0,0,8.12-11.56A11.86,11.86,0,0,0,102.56,113.9Zm-7.15,16.69c-.06,0,0,.16,0,.25s.19.12.25,0,0-.16,0-.25A.2.2,0,0,0,95.41,130.59Zm-.52-.39c0,.06,0,.14.11.19a.15.15,0,0,0,.21,0c0-.07,0-.15-.11-.19S94.93,130.15,94.89,130.2Zm1.57,1.72c-.08.07,0,.21.06.3s.25.13.32.05,0-.21-.07-.3A.22.22,0,0,0,96.46,131.92Zm-.55-.71c-.08,0-.08.18,0,.29s.21.16.27.11a.22.22,0,0,0,0-.3C96.11,131.2,96,131.15,95.91,131.21Z" transform="translate(-90.71 -113.9)"/></svg>