<svg id="linkedin" data-name="linkedin" xmlns="http://www.w3.org/2000/svg" viewBox="0 0 24 24"><defs><style>.cls-1{fill:#ff514e;}</style></defs><path class="cls-1" d="M180,133H159.46a1.72,1.72,0,0,0-1.71,1.73v20.54a1.72,1.72,0,0,0,1.71,1.73H180a1.73,1.73,0,0,0,1.72-1.73V134.77A1.73,1.73,0,0,0,180,133Zm-15,20.57h-3.56V142.16H165v11.45Zm-1.78-13a2.06,2.06,0,1,1,2.07-2.06A2.06,2.06,0,0,1,163.22,140.59Zm15.12,13h-3.56V148c0-1.33,0-3-1.85-3s-2.14,1.45-2.14,2.94v5.67h-3.55V142.16h3.41v1.56h0a3.73,3.73,0,0,1,3.37-1.84c3.6,0,4.27,2.37,4.27,5.45Z" transform="translate(-157.75 -133.04)"/></svg>